<?xml version="1.0" standalone="no"?>
<!DOCTYPE svg PUBLIC "-//W3C//DTD SVG 20010904//EN"
 "http://www.w3.org/TR/2001/REC-SVG-20010904/DTD/svg10.dtd">
<svg version="1.0" xmlns="http://www.w3.org/2000/svg"
 width="642.000000pt" height="385.000000pt" viewBox="0 0 642.000000 385.000000"
 preserveAspectRatio="xMidYMid meet">
<metadata>
Created by potrace 1.16, written by Peter Selinger 2001-2019
</metadata>
<g transform="translate(0.000000,385.000000) scale(0.100000,-0.100000)"
fill="#000000" stroke="none">
<path d="M74 3628 c3 -123 11 -470 16 -773 11 -556 16 -663 30 -615 3 14 6 57
5 95 -2 39 -5 196 -9 350 -3 154 -8 336 -11 405 -3 69 -8 268 -11 443 -4 205
-10 317 -17 317 -6 0 -8 -73 -3 -222z"/>
<path d="M4060 3275 c-25 -13 -72 -28 -105 -34 -56 -11 -123 -50 -132 -78 -2
-6 12 -23 32 -39 35 -26 36 -26 50 -8 11 15 15 16 15 4 1 -13 2 -13 13 0 7 8
26 24 42 34 l30 19 -19 -22 c-24 -26 -16 -37 10 -13 40 36 91 56 115 46 30
-14 100 10 131 43 l23 26 -25 -7 c-14 -4 -36 -7 -49 -7 -13 1 -29 -3 -35 -7
-18 -13 -41 -8 -41 8 0 8 11 25 24 38 l24 22 -29 0 c-16 -1 -49 -12 -74 -25z"/>
<path d="M4120 3131 c-19 -9 -57 -33 -84 -53 -58 -45 -72 -47 -80 -13 -10 41
-28 18 -21 -26 l7 -39 -42 0 c-43 0 -133 42 -160 75 -11 13 -26 13 -96 0 -16
-4 -24 -17 -34 -59 -14 -60 -8 -85 17 -65 18 16 33 -3 33 -42 0 -19 -10 -33
-39 -54 -22 -15 -44 -24 -50 -21 -5 4 -12 -2 -16 -13 -3 -11 -13 -25 -22 -33
-12 -9 -15 -9 -9 0 4 7 2 12 -4 12 -7 0 -9 -7 -6 -17 8 -20 -40 -73 -66 -73
-11 0 -16 5 -13 10 3 6 0 13 -7 15 -16 6 -128 -42 -128 -55 0 -10 67 -50 103
-61 16 -4 27 -4 27 2 0 5 12 8 27 7 16 -2 28 2 29 10 1 6 2 19 3 28 0 8 5 12
11 9 5 -3 8 -40 6 -85 -4 -76 -3 -79 15 -69 18 9 24 41 21 104 -1 18 0 18 10
-2 6 -13 15 -23 20 -23 5 0 7 3 4 8 -6 10 15 37 42 51 20 11 22 10 22 -14 0
-17 -16 -41 -47 -73 -35 -35 -40 -42 -18 -28 17 10 39 26 50 35 11 9 29 23 40
31 l20 15 -20 -24 c-11 -13 -59 -53 -108 -89 -48 -36 -85 -67 -83 -69 2 -3 25
12 50 31 26 19 63 38 83 42 20 4 47 18 60 32 40 43 34 18 -7 -32 -22 -27 -40
-53 -41 -60 0 -6 -2 -20 -4 -30 -2 -11 2 -34 9 -51 12 -28 16 -30 53 -27 45 4
115 51 78 52 -19 1 -19 1 -2 11 21 12 29 7 50 -33 20 -40 10 -85 -24 -105 -16
-10 -29 -21 -29 -25 0 -4 -6 -8 -14 -8 -7 0 -19 -7 -26 -15 -9 -10 -9 -15 -1
-15 16 0 14 -25 -4 -40 -8 -7 -12 -17 -9 -22 12 -20 61 2 106 46 58 59 88 61
105 9 8 -26 8 -42 1 -50 -5 -7 -7 -17 -4 -22 9 -14 36 -2 36 15 0 11 5 11 27
1 21 -9 27 -9 31 1 4 14 52 16 52 2 0 -5 5 -10 12 -10 6 0 22 -10 35 -21 20
-20 23 -20 29 -5 3 9 11 16 16 16 6 0 6 -6 -1 -14 -9 -11 -7 -19 11 -39 13
-14 29 -32 36 -41 14 -18 37 -12 26 6 -7 11 -7 119 0 125 2 2 20 -4 40 -12 40
-17 66 -8 66 21 0 23 26 16 38 -11 6 -14 17 -25 24 -25 7 0 23 -3 36 -6 17 -5
22 -2 22 14 0 11 8 26 18 33 9 8 15 13 13 12 -2 -2 -9 2 -16 7 -14 12 -65 -9
-65 -27 0 -27 -19 -11 -25 21 -6 30 -3 38 31 69 32 29 44 34 71 30 33 -6 33
-5 33 34 0 30 -7 46 -29 68 -28 25 -81 122 -81 145 0 28 73 -2 89 -36 6 -13
17 -24 25 -24 8 0 25 -22 38 -50 21 -44 48 -67 48 -40 0 16 81 100 111 116 16
8 49 14 75 14 45 0 46 1 31 18 -19 21 -22 42 -6 42 5 0 7 4 4 10 -3 6 -18 -1
-33 -15 -15 -14 -31 -25 -35 -25 -5 0 -22 -9 -38 -21 -59 -42 -133 1 -190 110
-34 64 -67 88 -100 71 -16 -9 -19 -7 -19 10 0 39 -32 120 -51 131 -15 8 -17
14 -9 28 5 10 7 21 4 24 -3 2 4 20 15 38 28 46 27 49 -16 50 -22 0 -32 3 -23
7 24 11 21 42 -4 42 -24 0 -66 -38 -67 -61 0 -8 -4 -4 -9 9 -6 13 -27 31 -47
40 -105 48 -120 88 -22 57 17 -6 19 -3 13 22 -9 40 -15 42 -54 24z m12 -295
c-3 -33 -1 -38 13 -32 11 4 18 0 22 -12 2 -10 14 -19 25 -19 26 -2 43 -18 43
-41 0 -9 6 -16 14 -14 12 3 12 1 1 -14 -12 -14 -12 -18 4 -30 17 -12 18 -14 2
-20 -11 -4 -13 -10 -7 -18 8 -9 1 -11 -27 -9 -37 4 -37 4 -12 -11 14 -9 20
-15 13 -16 -7 0 -10 -7 -6 -16 5 -13 2 -15 -15 -10 -22 7 -54 -4 -54 -19 0
-16 33 -26 65 -20 40 9 33 1 -17 -20 -21 -9 -35 -11 -31 -6 3 6 1 11 -6 11 -6
0 -18 8 -26 18 -8 9 -11 11 -7 3 5 -11 2 -13 -14 -9 -12 4 -22 2 -22 -3 0 -5
4 -9 9 -9 5 0 11 -10 14 -21 l6 -21 -23 21 c-12 12 -26 18 -31 14 -4 -5 -5 1
0 12 4 11 10 35 13 53 4 28 2 31 -14 25 -12 -4 -15 -3 -10 6 4 6 16 11 25 9
10 -2 20 2 22 7 2 6 -11 11 -30 13 -20 2 -31 0 -27 -7 4 -5 2 -12 -4 -16 -6
-4 -10 5 -10 20 0 20 4 26 15 21 19 -7 19 -1 -1 18 -14 15 -14 16 0 16 9 0 16
9 16 21 0 11 4 18 9 14 14 -8 21 8 27 68 4 35 2 57 -5 61 -6 4 -13 0 -16 -8
-15 -47 -18 -52 -22 -30 -2 11 0 32 6 46 9 23 13 25 43 19 31 -7 33 -9 30 -45z"/>
<path d="M4803 3115 c-19 -14 -27 -111 -11 -122 20 -12 59 -13 52 -1 -4 6 -2
8 4 4 6 -3 14 -2 17 4 5 8 11 7 22 -1 12 -10 16 -10 24 2 5 8 7 20 4 27 -2 6
2 12 10 12 8 0 15 6 15 14 0 8 3 22 6 30 13 34 -105 59 -143 31z"/>
<path d="M4700 3066 c0 -34 10 -57 22 -50 5 3 18 -3 29 -15 18 -19 19 -25 7
-52 -11 -26 -17 -30 -42 -25 -16 3 -32 6 -36 6 -4 0 -10 10 -13 22 -5 17 -9
19 -21 9 -10 -8 -16 -9 -21 -1 -3 5 -17 10 -31 10 -40 0 -29 -28 17 -40 34 -9
43 -18 59 -56 20 -46 40 -55 66 -29 22 22 47 18 79 -11 15 -14 29 -24 31 -22
2 3 -17 72 -33 113 -8 22 -31 57 -53 80 -12 13 -19 28 -16 34 10 15 -12 51
-29 51 -9 0 -15 -10 -15 -24z"/>
<path d="M5075 2840 c3 -5 1 -10 -4 -10 -6 0 -11 -6 -11 -14 0 -16 -21 -26
-56 -26 -28 0 -28 -1 -12 -55 6 -22 11 -44 9 -49 -1 -5 4 -6 12 -3 7 3 19 -4
26 -14 6 -11 16 -17 21 -14 6 3 10 1 10 -4 0 -24 28 -8 60 34 33 44 58 60 46
30 -3 -8 -9 -21 -12 -29 -4 -10 1 -12 20 -9 14 3 34 2 43 -3 10 -4 29 -9 43
-10 14 -2 43 -5 65 -8 21 -2 34 -2 28 2 -18 11 -20 46 -3 59 13 10 10 12 -15
13 -24 0 -27 2 -15 11 11 8 12 12 3 16 -7 2 -13 11 -13 19 0 21 -18 17 -25 -6
-6 -18 -7 -19 -41 -2 -32 15 -37 15 -47 2 -7 -8 -29 -15 -49 -16 -37 -1 -37
-1 -24 25 20 39 5 71 -34 71 -18 0 -29 -4 -25 -10z"/>
<path d="M4914 2455 c26 -69 29 -114 11 -162 -20 -54 -67 -110 -105 -125 -44
-17 -109 -10 -158 17 -44 24 -47 25 -59 9 -7 -10 -13 -26 -13 -36 0 -11 -15
-28 -35 -40 -41 -24 -41 -41 1 -48 72 -13 11 -56 -151 -107 l-90 -28 1 -58 c1
-52 -8 -75 -18 -45 -3 8 -19 3 -51 -15 -47 -28 -60 -47 -32 -47 17 0 20 -25 5
-35 -5 -3 -10 -17 -10 -31 0 -13 -4 -24 -8 -24 -5 0 -8 -24 -8 -54 1 -51 2
-54 19 -39 9 9 18 14 20 12 1 -2 9 -12 17 -22 13 -17 12 -19 -10 -17 -55 5
-67 -12 -49 -68 8 -23 8 -41 1 -56 -5 -11 -14 -32 -20 -46 l-11 -25 0 27 c-2
78 -44 102 -80 46 l-21 -33 0 28 c0 23 -4 27 -27 27 -16 0 -35 5 -43 10 -12 7
-8 11 18 16 35 7 39 13 20 33 -11 10 -9 15 7 27 19 14 19 15 -3 20 -13 4 -22
14 -22 26 0 23 -52 78 -73 78 -21 0 -63 -52 -98 -122 -25 -49 -32 -57 -47 -49
-13 7 -21 3 -35 -17 -11 -15 -16 -19 -13 -9 3 10 6 37 6 58 0 23 4 38 9 34 6
-3 22 15 37 41 21 36 24 48 14 54 -7 5 -10 15 -6 25 5 13 2 16 -12 13 -15 -4
-18 -1 -14 18 3 17 -1 26 -14 31 -29 10 -74 43 -74 54 0 5 17 9 38 8 38 -3 62
5 62 20 0 4 -9 7 -21 7 -12 -1 -28 10 -37 23 -16 23 -16 24 8 16 14 -4 29 -13
33 -19 5 -6 7 -1 5 13 -3 24 -6 25 -65 33 -14 1 -33 58 -33 96 0 12 -6 22 -14
22 -18 0 -40 -54 -33 -80 3 -11 1 -23 -4 -26 -5 -3 -9 2 -9 11 0 9 -11 44 -24
78 -13 34 -26 73 -30 87 -3 14 -19 41 -36 60 -17 19 -36 54 -42 79 -10 40 -12
42 -24 25 -8 -10 -28 -34 -46 -51 -28 -29 -39 -33 -83 -33 -82 1 -122 15 -186
68 -41 33 -67 48 -80 45 -25 -7 -24 -37 2 -62 13 -12 17 -21 10 -26 -6 -3 -9
-11 -6 -16 4 -5 1 -9 -5 -9 -7 0 -10 -6 -8 -12 3 -7 13 -13 24 -13 12 0 20 -8
22 -22 2 -16 10 -23 24 -23 l21 0 -21 -23 c-12 -13 -20 -26 -17 -28 2 -3 -11
-11 -30 -18 -19 -7 -35 -17 -35 -22 0 -5 -5 -9 -11 -9 -16 0 -71 -41 -65 -48
3 -3 1 -11 -5 -19 -6 -7 -9 -13 -5 -13 3 0 -3 -14 -13 -31 -10 -17 -17 -39
-14 -49 3 -10 0 -21 -6 -24 -6 -4 -11 -18 -11 -31 0 -24 35 -115 44 -115 3 0
3 6 0 14 -4 10 16 26 60 51 53 29 66 42 66 61 0 25 32 49 55 40 23 -9 25 6 5
40 -20 32 -20 33 -1 39 11 3 36 21 56 39 43 40 102 59 173 57 39 -2 54 2 58
13 3 9 15 16 25 16 10 0 19 7 19 15 0 9 9 15 23 15 29 0 64 -24 49 -34 -6 -4
-8 -14 -5 -23 5 -14 0 -15 -40 -9 -55 8 -67 -5 -34 -38 17 -17 31 -22 50 -19
17 3 27 1 27 -6 0 -22 -32 -23 -60 -2 -36 26 -39 26 -33 -1 4 -13 28 -44 56
-69 52 -49 60 -81 21 -87 -15 -2 -49 21 -112 77 -50 44 -99 84 -111 90 -26 14
-68 14 -77 0 -4 -8 1 -9 15 -4 27 8 54 -8 114 -70 45 -45 48 -55 17 -55 -9 0
-43 -13 -76 -29 -32 -16 -86 -37 -119 -47 -81 -24 -101 -43 -87 -83 9 -25 7
-34 -9 -55 -24 -31 -24 -35 4 -29 15 3 18 2 9 -5 -7 -5 -14 -20 -14 -33 -1
-13 -6 -30 -11 -37 -5 -7 -9 -35 -8 -64 1 -45 6 -59 45 -109 40 -51 44 -61 36
-88 -11 -39 6 -54 71 -58 27 -1 75 -15 105 -29 49 -23 65 -26 123 -21 63 6 65
5 36 -9 -23 -10 -64 -13 -168 -12 -105 2 -140 0 -146 -11 -6 -9 -10 -7 -14 8
-7 28 -24 27 -29 -3 -4 -19 -1 -22 15 -18 15 4 18 2 12 -9 -7 -11 -6 -12 7 -2
8 7 19 9 23 5 5 -4 5 0 1 8 -5 8 2 4 15 -10 13 -14 20 -20 15 -13 -5 8 -6 16
-2 20 3 3 6 1 6 -6 0 -7 4 -10 9 -7 5 4 8 -5 7 -19 -2 -15 1 -22 7 -18 6 4 8
0 4 -10 -3 -9 -1 -19 6 -23 7 -4 9 -4 5 1 -10 11 11 47 23 40 5 -4 9 -12 9
-18 0 -7 -4 -6 -10 3 -8 12 -9 9 -8 -12 1 -15 4 -25 7 -23 2 3 11 -1 19 -7 15
-13 22 -15 84 -25 24 -3 35 -10 31 -17 -4 -6 -9 -20 -10 -31 -2 -11 -8 -24
-13 -29 -6 -6 -10 -18 -10 -27 0 -25 82 -29 134 -7 46 19 75 10 77 -25 1 -20
2 -20 6 -2 8 32 23 42 37 23 16 -21 45 -25 74 -10 25 14 37 10 51 -17 9 -16 5
-18 -32 -17 -85 1 -133 -13 -146 -41 -10 -23 -9 -29 8 -47 20 -20 76 -32 65
-14 -5 8 15 7 55 -4 7 -1 32 -21 54 -43 22 -22 36 -33 32 -25 -6 11 -3 10 12
-3 11 -9 23 -14 28 -10 4 5 5 3 2 -4 -4 -6 -4 -13 0 -15 5 -1 28 -43 52 -91
39 -79 45 -86 57 -70 12 16 12 14 4 -15 -7 -27 -6 -34 12 -43 17 -9 18 -13 7
-20 -11 -7 -11 -9 3 -9 9 0 19 -6 22 -12 5 -11 7 -11 12 0 7 15 40 16 49 2 4
-6 11 -8 16 -5 5 4 9 0 9 -7 1 -7 7 -2 15 12 8 14 14 19 15 11 0 -8 3 -11 6
-8 4 4 2 12 -4 19 -6 7 -10 15 -10 18 0 3 -4 18 -7 33 -10 37 4 51 39 37 16
-6 33 -24 41 -44 8 -19 20 -38 25 -41 14 -8 50 23 50 42 0 8 3 12 8 9 15 -9
93 -17 112 -11 10 3 35 30 54 59 33 50 59 72 79 67 5 -1 6 3 2 9 -8 12 -55 13
-87 1 -35 -12 -115 -23 -100 -12 10 6 7 10 -12 13 -14 3 -23 1 -20 -3 3 -5 -1
-9 -9 -9 -20 0 -57 38 -57 58 1 14 4 13 19 -5 11 -13 27 -23 38 -23 15 0 16 2
3 10 -13 9 -13 10 0 11 8 1 18 1 23 0 4 0 6 2 5 6 -4 10 45 59 55 55 11 -3 8
13 -5 26 -17 17 -28 15 -21 -5 5 -15 3 -14 -11 2 -9 11 -15 14 -14 6 2 -7 -5
-15 -14 -16 -10 -2 -25 -10 -34 -19 -24 -25 -36 -19 -18 9 9 14 22 25 29 25 7
0 24 9 39 21 15 11 32 22 39 23 6 2 20 7 30 11 14 6 16 10 6 16 -10 6 -10 12
4 27 16 17 16 20 2 32 -16 13 -16 35 1 35 17 0 34 16 29 26 -4 5 -1 9 4 9 19
0 12 18 -16 44 -31 29 -25 42 37 72 36 17 40 23 40 56 0 46 28 68 53 40 16
-18 32 -107 28 -159 -4 -57 12 -73 74 -73 39 0 54 4 52 12 -1 7 7 13 18 13 11
0 19 -6 18 -12 -2 -7 3 -13 10 -13 6 0 42 -3 78 -6 62 -6 67 -5 74 15 7 24 23
28 31 6 5 -13 10 -13 33 0 15 7 33 21 40 29 8 9 21 16 29 16 9 0 36 21 61 48
24 26 41 41 37 35 -12 -22 15 -14 36 9 11 13 15 24 8 28 -6 4 4 22 23 46 19
21 39 49 46 62 7 12 16 20 21 17 4 -3 17 6 28 20 23 29 34 33 25 8 -5 -11 -3
-14 6 -9 8 6 7 -2 -3 -23 -21 -40 -6 -40 33 0 26 25 31 37 28 66 -3 25 -11 39
-28 48 -13 7 -27 11 -31 9 -4 -3 -12 15 -19 38 -6 24 -15 56 -20 72 -5 16 -9
42 -9 57 0 24 -4 28 -22 27 -13 -1 -44 13 -69 30 -26 18 -52 32 -58 32 -6 0
-20 -15 -31 -32 -22 -36 -27 -19 -9 29 l10 28 -30 -29 c-17 -17 -31 -32 -31
-35 0 -3 21 -17 46 -30 67 -36 82 -60 76 -121 -3 -35 -1 -50 7 -50 7 0 9 6 5
13 -4 6 3 2 15 -10 12 -13 26 -23 31 -23 6 0 10 -5 10 -11 0 -8 -14 -10 -40
-6 -35 4 -40 2 -40 -14 0 -19 -65 -73 -109 -90 -71 -28 -207 -28 -199 -1 2 5
-12 21 -30 37 -18 15 -40 41 -49 59 l-17 31 -6 -30 c-6 -34 -53 -70 -114 -86
-22 -6 -61 -22 -86 -35 -25 -13 -49 -24 -53 -24 -13 0 44 44 78 60 49 23 73
49 68 71 -3 11 -11 18 -18 15 -8 -3 -11 2 -8 15 5 19 23 27 23 11 0 -5 6 -9
13 -9 8 0 14 6 14 13 0 7 -6 10 -14 7 -7 -3 -13 2 -13 11 0 9 -6 16 -12 16 -7
0 0 9 16 19 17 11 33 18 38 15 4 -3 8 -1 8 5 0 18 32 42 48 36 13 -5 12 -2 -2
14 -17 19 -17 20 11 38 15 10 33 25 40 33 11 13 12 13 13 0 1 -8 5 -5 11 8 5
13 7 27 4 32 -3 4 8 7 24 6 26 -1 28 -3 20 -24 l-9 -24 82 7 c83 6 83 6 127
53 55 59 46 61 -87 27 -93 -24 -152 -26 -152 -5 0 13 28 20 32 8 2 -6 10 -8
16 -4 14 9 16 66 2 66 -5 0 -10 7 -10 16 0 8 -4 13 -9 10 -4 -3 -17 1 -27 9
-17 13 -18 16 -4 41 20 35 57 61 57 40 0 -9 -7 -18 -16 -21 -13 -5 -13 -7 -1
-15 12 -7 12 -11 -1 -26 -12 -16 -12 -17 1 -9 20 12 50 14 56 3 3 -4 14 -3 25
2 12 7 19 7 19 1 0 -5 12 -3 28 5 35 18 48 18 56 -3 5 -12 9 -14 18 -5 14 14
32 16 24 3 -8 -13 52 -19 65 -7 8 8 9 5 4 -11 -5 -19 -3 -22 11 -16 15 6 15 4
-1 -20 -16 -25 -16 -27 0 -27 9 0 19 9 22 20 3 11 10 17 15 14 5 -3 16 2 24
12 13 17 13 16 4 -9 -13 -36 -13 -33 6 -51 9 -9 11 -16 4 -16 -6 0 -8 -5 -4
-11 3 -6 17 -8 31 -4 28 7 83 -14 83 -31 0 -13 25 -26 34 -17 3 3 -8 17 -24
31 -32 28 -42 66 -15 56 10 -4 15 0 15 11 0 10 4 13 13 9 9 -6 9 -5 0 7 -7 9
-8 20 -3 28 7 12 11 12 24 -2 10 -10 12 -17 5 -19 -7 -2 -9 -13 -5 -26 12 -35
26 -15 21 28 -3 24 -1 40 5 40 6 0 6 7 -2 19 -7 11 -15 18 -19 15 -4 -2 -10 0
-14 5 -3 6 -12 8 -20 4 -22 -8 -18 10 5 25 11 7 20 19 20 27 0 10 10 15 33 15
18 0 39 6 46 13 11 10 12 9 6 -2 -6 -10 -4 -12 6 -5 8 4 24 7 36 6 12 -2 43 9
69 24 38 22 46 24 41 11 -6 -16 -4 -16 25 -1 17 9 42 17 55 19 14 1 30 8 36
15 9 10 9 11 -2 5 -11 -7 -13 0 -7 34 6 38 4 42 -19 51 -14 6 -37 15 -52 22
-16 6 -30 12 -33 12 -3 1 -10 4 -16 8 -16 11 -42 4 -66 -19 -49 -44 -77 -55
-135 -55 -140 1 -149 3 -158 25 -8 17 -17 21 -44 19 -20 -1 -38 3 -42 10 -4 7
-11 9 -16 5 -4 -5 -1 -12 7 -17 8 -5 11 -12 8 -15 -4 -4 -13 -3 -20 1 -7 5
-23 7 -35 6 -11 -2 -24 2 -28 8 -4 6 -15 8 -25 5 -20 -6 -36 10 -20 20 21 13
9 23 -14 12 -17 -8 -21 -15 -15 -23 10 -13 -29 -44 -56 -44 -21 0 -19 17 4 30
23 12 51 64 51 94 0 12 3 32 7 44 5 20 10 23 35 18 36 -7 92 29 83 54 -9 23
-69 109 -76 110 -4 0 -17 -30 -30 -66 -19 -52 -27 -64 -41 -61 -10 3 -18 0
-18 -6 0 -8 -3 -8 -11 0 -6 6 -17 9 -24 7 -19 -8 -29 15 -18 39 5 12 29 60 52
107 47 92 50 127 15 145 -12 6 -30 17 -40 25 -16 14 -17 13 -10 -5z m-1438
-304 c-4 -6 -16 -11 -27 -11 -11 0 -29 -5 -40 -11 -28 -15 -7 -39 35 -40 27 0
28 -1 10 -9 -12 -4 -24 -15 -27 -24 -5 -12 -13 -13 -39 -5 -18 5 -53 9 -79 9
-36 0 -50 -5 -70 -26 -13 -14 -43 -39 -66 -55 -27 -19 -59 -58 -92 -112 -70
-113 -67 -110 -80 -102 -9 5 -8 13 3 30 15 23 15 24 -17 27 -17 2 -30 8 -27
13 5 11 11 10 47 0 18 -6 25 0 42 36 25 51 25 49 6 49 -8 0 -15 3 -15 8 0 8
42 37 50 35 3 -1 13 10 23 23 l18 24 -27 -10 c-53 -21 -33 -1 48 46 123 72
189 100 173 74 -10 -17 7 -11 75 23 60 31 92 34 76 8z m1375 -42 c26 -18 27
-22 14 -35 -28 -28 -17 -61 18 -55 4 0 7 -8 7 -19 0 -24 -13 -26 -30 -5 -7 8
-21 15 -31 15 -11 0 -19 4 -19 9 0 15 -51 -1 -63 -20 -18 -29 -25 -23 -37 36
-6 30 -15 53 -20 50 -4 -3 -13 2 -20 10 -17 21 18 34 93 34 44 1 66 -4 88 -20z
m442 -250 c10 -13 15 -29 11 -38 -7 -18 -7 -22 2 -77 5 -36 3 -43 -21 -62 -25
-20 -28 -20 -51 -5 -24 15 -24 16 -7 36 17 19 17 19 -2 15 -11 -2 -25 3 -31
11 -13 17 -34 7 -34 -17 0 -9 -5 -24 -10 -32 -8 -11 -9 -8 -4 12 3 15 3 31 0
36 -3 6 -39 2 -88 -10 -45 -10 -85 -15 -89 -11 -11 11 1 53 15 53 6 0 4 4 -4
10 -11 7 -9 11 13 19 16 6 35 11 44 11 9 0 31 11 50 26 18 14 38 22 45 18 6
-4 8 -3 4 4 -9 15 41 29 93 26 33 -1 50 -8 64 -25z m-1322 -455 c32 -40 58
-85 65 -113 9 -32 13 -38 13 -20 1 28 31 122 37 116 6 -6 -13 -218 -21 -240
-12 -31 -28 -19 -22 17 l5 34 -34 -38 c-36 -39 -66 -54 -139 -65 -77 -12 -161
54 -186 147 -9 35 -7 46 26 114 32 66 42 78 78 94 23 10 61 19 84 19 39 1 44
-2 94 -65z m-140 -548 c-11 -13 -10 -21 6 -47 25 -44 46 -50 41 -13 -2 16 -9
30 -15 30 -7 1 -16 2 -20 3 -4 0 8 9 27 20 39 21 55 17 25 -6 -20 -15 -20 -15
3 -10 16 4 22 2 19 -7 -3 -6 2 -25 9 -41 13 -29 14 -27 9 29 l-6 60 29 -40
c51 -69 65 -77 123 -72 47 5 55 3 76 -21 18 -18 23 -33 19 -52 -3 -18 0 -29 9
-33 23 -8 18 -34 -9 -51 -22 -15 -31 -15 -101 0 -122 25 -194 71 -162 105 10
10 8 11 -10 6 -28 -9 -63 37 -92 122 -28 81 -27 92 6 60 22 -22 24 -29 14 -42z"/>
<path d="M5113 2419 c-18 -5 -33 -14 -33 -19 0 -5 7 -7 15 -4 8 4 15 1 15 -6
0 -7 7 -9 15 -6 43 17 49 17 25 -3 -14 -11 -32 -21 -41 -21 -37 0 -37 -24 0
-85 31 -52 41 -60 66 -60 17 0 33 -4 37 -10 5 -6 8 -4 8 5 0 8 14 23 30 32 38
22 40 59 5 111 -20 28 -36 40 -70 48 -25 6 -42 15 -39 20 3 5 4 9 2 8 -2 0
-18 -5 -35 -10z"/>
<path d="M3874 1986 c5 -19 1 -26 -14 -31 -23 -7 -27 -25 -5 -25 7 0 18 8 23
17 8 14 14 15 38 5 16 -6 40 -12 53 -14 28 -4 52 -35 35 -46 -6 -4 -14 -19
-18 -34 -5 -22 -3 -26 9 -22 8 4 15 14 15 24 0 34 16 29 43 -13 l27 -41 0 31
c0 18 10 40 24 56 20 22 22 29 12 40 -7 7 -17 26 -23 42 -8 24 -16 31 -43 33
-31 3 -32 2 -26 -23 7 -27 6 -27 -31 -20 -20 4 -54 15 -75 26 -48 24 -51 24
-44 -5z"/>
<path d="M115 1658 c13 -953 15 -1144 16 -1373 0 -137 3 -258 6 -267 2 -10 11
-18 19 -18 13 0 18 16 16 50 0 8 -3 186 -7 395 -3 209 -8 452 -11 540 -4 88
-6 166 -5 173 0 6 1 18 2 25 0 6 -3 136 -7 287 -4 151 -7 328 -8 392 -1 86 -4
118 -13 118 -10 0 -11 -73 -8 -322z"/>
<path d="M2830 1410 c-12 -8 -11 -14 8 -39 28 -38 28 -51 1 -44 -19 5 -20 3
-14 -18 17 -55 25 -69 39 -69 7 0 21 -17 29 -39 10 -25 25 -42 44 -49 102 -41
110 -43 136 -43 9 0 15 -4 13 -8 -3 -4 1 -8 9 -8 8 0 12 3 10 7 -2 4 5 17 16
28 14 16 16 22 6 22 -23 0 -43 31 -68 105 -26 76 -61 119 -90 112 -10 -3 -20
2 -23 9 -9 24 -93 48 -116 34z"/>
<path d="M2367 1313 c-3 -5 -2 -15 3 -23 5 -9 5 -19 -2 -27 -6 -8 -7 -18 -1
-25 5 -7 9 -51 8 -98 0 -47 4 -88 9 -92 6 -4 4 -13 -3 -22 -10 -12 -11 -16 -1
-16 7 0 10 -8 7 -20 -3 -11 -1 -20 5 -20 6 0 7 -8 4 -17 -4 -9 -1 -20 6 -24
11 -7 11 -12 0 -30 -8 -11 -9 -18 -3 -15 12 8 26 -37 17 -59 -3 -8 0 -14 7
-12 8 1 11 -10 9 -32 -1 -21 4 -41 14 -53 16 -17 16 -18 1 -18 -10 0 -17 -5
-17 -11 0 -5 5 -7 10 -4 10 6 14 -7 11 -34 -2 -8 2 -10 11 -5 11 6 11 5 0 -8
-11 -14 -10 -18 4 -26 11 -6 15 -18 12 -35 -3 -15 -1 -24 3 -21 10 6 18 -40
24 -151 5 -87 13 -198 20 -260 2 -16 4 -58 4 -92 1 -48 4 -63 15 -63 12 0 15
21 16 103 2 129 2 127 12 127 4 0 8 7 8 16 0 9 -5 12 -12 8 -6 -4 -8 -3 -5 3
4 5 8 31 11 57 5 56 16 74 16 27 0 -19 4 -30 10 -26 6 3 7 -1 4 -10 -5 -11 0
-18 14 -22 26 -6 37 -33 20 -46 -9 -6 -8 -7 5 -3 9 3 17 1 17 -5 0 -6 9 -8 20
-4 16 5 20 2 20 -19 0 -19 5 -24 20 -23 11 1 20 5 20 10 0 4 4 6 10 2 6 -3 6
-15 0 -30 -7 -17 -5 -27 7 -37 14 -11 16 -10 11 14 -3 15 -1 33 3 40 6 9 9 5
10 -12 1 -14 1 -31 0 -37 -1 -7 5 -13 14 -13 20 0 19 -10 -2 -26 -17 -13 -17
-14 1 -7 13 4 17 3 12 -5 -3 -6 -1 -14 5 -18 7 -4 9 -3 5 4 -3 6 -2 13 4 17
10 6 14 -16 12 -65 -1 -18 1 -21 7 -11 5 7 14 10 20 7 7 -5 11 1 11 13 0 12
-3 20 -7 18 -5 -1 -8 3 -8 8 0 6 3 9 7 8 5 -2 8 4 8 12 0 8 5 15 11 15 5 0 7
-6 3 -12 -5 -8 0 -7 11 2 16 14 17 13 11 -8 -5 -13 -3 -22 3 -22 6 0 10 -6 8
-13 -1 -6 6 -11 16 -9 10 2 17 -3 17 -13 0 -13 40 -15 343 -14 246 0 335 3
317 11 -14 5 -47 19 -75 31 -27 11 -75 32 -105 45 -30 14 -57 24 -59 23 -2 -2
-7 1 -10 6 -3 5 -33 24 -66 42 -172 96 -404 295 -537 460 -139 172 -272 407
-338 591 -35 99 -44 118 -53 103z"/>
<path d="M4591 798 c-1 -30 3 -37 21 -40 22 -3 22 -3 2 -22 -18 -18 -19 -18
-22 -2 -5 26 -27 12 -24 -15 1 -13 9 -46 18 -73 8 -27 13 -54 10 -62 -10 -25
58 -4 85 27 14 16 31 29 37 29 7 0 12 3 12 8 0 8 59 30 110 40 23 5 39 16 47
32 6 14 33 44 60 68 48 43 47 52 -4 30 -17 -7 -88 -12 -185 -12 -132 -1 -158
1 -162 14 -2 8 -4 -2 -5 -22z"/>
</g>
</svg>
