<?xml version="1.0" standalone="no"?>
<!DOCTYPE svg PUBLIC "-//W3C//DTD SVG 20010904//EN"
 "http://www.w3.org/TR/2001/REC-SVG-20010904/DTD/svg10.dtd">
<svg version="1.0" xmlns="http://www.w3.org/2000/svg"
 width="800.000000pt" height="800.000000pt" viewBox="0 0 800.000000 800.000000"
 preserveAspectRatio="xMidYMid meet">

<g transform="translate(0.000000,800.000000) scale(0.100000,-0.100000)"
fill="#000000" stroke="none">
<path d="M5876 6962 c-4 -6 3 -43 15 -83 85 -279 -114 -516 -503 -601 -87 -19
-133 -22 -298 -22 -210 0 -308 10 -655 68 -110 19 -263 45 -340 58 -115 19
-175 23 -340 23 -197 -1 -201 -1 -286 -31 -245 -87 -379 -273 -328 -456 5 -21
14 -38 19 -38 4 0 13 23 19 52 28 128 125 201 331 249 157 36 370 38 600 4
102 -14 230 -35 286 -46 294 -56 490 -81 686 -86 126 -4 226 -1 280 6 306 44
519 177 600 379 20 49 23 74 23 177 -1 109 -4 129 -34 218 -35 103 -62 149
-75 129z"/>
<path d="M2895 6876 c-94 -30 -173 -73 -277 -151 -92 -69 -246 -227 -301 -307
-36 -54 -38 -54 -152 -33 -163 31 -465 66 -620 72 -128 5 -177 2 -245 -11
-172 -35 -284 -112 -345 -240 -46 -97 -71 -223 -43 -214 7 3 18 33 25 69 7 35
29 96 48 136 111 227 366 279 950 194 236 -34 303 -46 312 -54 3 -3 -11 -32
-30 -64 -205 -341 -330 -752 -331 -1093 -2 -351 122 -554 364 -600 108 -20
206 -4 338 56 181 83 383 267 498 455 l39 64 6 -140 c9 -188 34 -278 101 -359
65 -80 173 -99 264 -46 104 59 213 215 284 408 l29 77 1 -65 c0 -95 18 -220
41 -294 22 -74 59 -123 106 -142 68 -29 130 22 241 195 l67 104 6 -64 c21
-233 155 -305 370 -198 164 83 290 237 356 438 22 67 24 88 20 176 -6 134 -18
162 -185 424 -40 63 -47 82 -48 125 0 49 -2 52 -35 63 -45 16 -158 16 -189 0
-14 -7 -31 -25 -38 -40 -12 -24 -11 -33 11 -80 13 -28 49 -80 79 -114 74 -85
153 -231 169 -311 14 -76 7 -213 -17 -292 -42 -144 -142 -288 -239 -345 -54
-31 -137 -44 -161 -25 -55 46 -78 183 -51 300 23 94 98 252 117 244 60 -25
105 -15 126 30 14 29 15 37 3 62 -19 38 -62 53 -97 33 -35 -19 -90 -102 -122
-182 -39 -97 -131 -275 -184 -355 -52 -79 -85 -104 -110 -83 -25 21 -39 118
-32 221 17 239 107 676 167 809 16 35 29 68 29 72 0 17 -85 51 -141 56 -71 7
-99 -8 -130 -70 -12 -23 -23 -44 -25 -46 -2 -2 -21 11 -43 28 -75 60 -146 85
-242 85 -79 1 -91 -2 -161 -37 -91 -44 -158 -114 -213 -218 -46 -88 -62 -134
-86 -248 -24 -119 -71 -205 -200 -366 -114 -142 -250 -253 -396 -323 -61 -28
-91 -36 -152 -40 -120 -7 -195 35 -250 137 -49 92 -64 174 -64 346 0 172 11
258 58 463 57 250 161 512 271 686 l37 58 45 -6 c25 -3 109 -9 186 -12 300
-13 478 48 561 190 47 82 50 209 5 281 -74 120 -217 163 -375 111z m238 -25
c14 -5 42 -25 63 -43 107 -95 102 -278 -12 -378 -84 -73 -230 -110 -428 -109
-118 0 -241 11 -252 21 -14 15 162 236 280 353 138 136 259 190 349 156z m640
-1052 c12 -6 46 -30 75 -52 49 -38 53 -43 47 -71 -12 -58 -36 -191 -51 -291
-35 -233 -161 -553 -261 -665 -75 -84 -138 -79 -170 12 -28 83 -26 401 5 561
69 357 222 574 355 506z"/>
<path d="M1200 5944 c0 -5 28 -22 63 -39 71 -34 112 -82 149 -172 21 -54 23
-72 23 -253 0 -282 -26 -382 -230 -895 -243 -610 -292 -789 -302 -1080 -4
-138 -2 -173 16 -255 26 -118 85 -241 151 -313 27 -30 47 -57 43 -61 -3 -3
-20 -6 -36 -6 -44 0 -230 -65 -305 -107 -134 -74 -245 -216 -273 -351 -23
-110 10 -356 60 -450 16 -30 45 -30 38 0 -35 151 -39 180 -28 241 35 201 212
354 489 425 100 25 120 27 317 26 267 0 377 -17 895 -139 430 -101 569 -124
741 -125 275 -1 492 107 582 290 28 56 32 75 32 140 -1 43 -7 85 -15 100 -13
24 -13 23 -30 -36 -36 -131 -120 -197 -316 -246 -78 -20 -114 -22 -289 -22
-227 0 -300 12 -735 117 -296 72 -551 124 -675 137 -174 19 -284 93 -359 242
-51 104 -67 174 -73 331 -12 283 47 516 272 1087 157 400 207 545 235 693 47
251 5 474 -115 614 -18 21 -59 54 -90 72 -52 31 -67 35 -146 39 -49 3 -89 1
-89 -4z"/>
<path d="M5508 5849 c-249 -59 -418 -386 -418 -811 0 -241 66 -398 185 -444
164 -62 346 103 461 421 l33 90 1 -75 c1 -189 39 -349 96 -404 85 -82 159 -41
292 164 57 88 216 396 227 442 4 14 2 29 -4 32 -6 4 -50 -74 -107 -189 -103
-208 -156 -299 -207 -352 -69 -73 -92 -32 -91 156 1 157 27 340 80 571 36 155
88 315 105 326 35 22 -38 71 -120 81 -76 9 -116 -9 -142 -65 -12 -26 -23 -48
-24 -50 -2 -2 -29 15 -61 38 -96 67 -208 92 -306 69z m257 -74 c28 -19 61 -43
74 -53 l25 -20 -17 -63 c-9 -35 -26 -127 -38 -204 -22 -153 -53 -271 -106
-410 -74 -190 -161 -329 -223 -355 -93 -38 -135 57 -133 305 3 365 121 724
268 816 46 29 93 24 150 -16z"/>
<path d="M4605 4380 c-171 -18 -373 -70 -383 -99 -5 -16 -5 -16 163 29 101 27
138 32 235 32 131 1 284 -31 398 -83 135 -61 269 -181 336 -302 70 -126 98
-313 67 -447 -30 -127 -143 -300 -268 -408 -153 -132 -406 -264 -582 -303 -25
-5 -79 -27 -119 -47 -139 -69 -227 -197 -220 -320 3 -60 22 -80 31 -35 15 74
100 151 205 184 160 50 468 16 734 -82 92 -34 119 -45 363 -152 433 -191 626
-263 845 -318 130 -32 142 -34 330 -34 176 0 202 2 264 23 113 37 193 80 256
138 135 126 185 293 160 531 -8 76 -17 116 -26 120 -26 10 -31 -6 -22 -64 20
-125 -26 -257 -121 -352 -144 -143 -416 -202 -724 -156 -222 34 -440 110 -957
335 -241 104 -393 164 -495 195 -49 14 -97 29 -105 31 -9 4 7 14 40 28 402
166 681 501 680 819 0 102 -33 236 -80 326 -72 139 -215 260 -393 333 -154 63
-426 98 -612 78z"/>
<path d="M3864 4371 c-21 -9 -69 -61 -76 -83 -3 -8 -20 -3 -54 19 -157 100
-351 76 -497 -60 -55 -52 -114 -137 -152 -222 -31 -68 -50 -127 -105 -325 -12
-45 -180 -376 -221 -438 -45 -67 -90 -112 -111 -112 -25 0 -44 48 -53 131 -20
190 99 799 192 982 24 49 25 51 7 64 -56 41 -201 54 -239 23 -50 -42 -122
-282 -150 -501 l-15 -124 -100 -200 c-113 -229 -188 -350 -226 -367 -23 -11
-28 -10 -45 10 -25 32 -33 97 -26 236 13 268 104 687 185 854 31 64 24 75 -59
97 -117 32 -178 12 -213 -67 -41 -93 -89 -294 -117 -488 -19 -133 -16 -491 4
-566 22 -80 52 -146 76 -168 46 -42 131 -36 184 12 58 52 166 221 263 412 l59
115 7 -160 c4 -88 13 -188 21 -222 16 -71 57 -146 92 -169 27 -18 93 -21 122
-6 62 33 178 196 286 402 29 54 53 97 54 96 2 -2 5 -47 8 -102 8 -184 70 -305
186 -369 47 -25 67 -30 150 -33 109 -5 173 9 273 60 126 64 265 187 394 348
41 52 79 99 84 105 5 5 2 -10 -6 -33 -20 -57 -94 -416 -106 -512 -5 -41 -21
-149 -34 -240 -14 -91 -30 -217 -36 -280 -10 -112 -55 -367 -86 -483 -37 -144
-130 -283 -223 -333 l-46 -24 65 5 c80 8 198 38 251 66 54 27 115 84 144 133
59 102 107 298 140 581 9 77 30 237 47 355 17 118 34 245 39 281 13 101 67
342 101 449 30 95 100 246 140 304 75 107 155 174 253 212 59 23 85 27 166 27
53 -1 116 -4 140 -7 l44 -6 -45 24 c-80 42 -173 58 -317 55 l-130 -4 -97 -48
c-74 -37 -112 -64 -158 -110 -61 -63 -121 -143 -153 -207 -53 -105 -255 -360
-376 -475 -168 -159 -339 -235 -442 -196 -58 22 -97 156 -97 337 0 184 44 398
119 581 52 126 96 196 158 253 81 74 130 77 216 14 39 -28 48 -40 43 -57 -3
-12 -13 -74 -22 -137 -9 -63 -23 -130 -31 -148 -13 -26 -13 -35 -2 -48 21 -26
66 -44 108 -44 59 0 81 37 121 200 36 144 59 212 86 247 l25 32 -39 26 c-41
27 -115 40 -148 26z"/>
<path d="M6284 4301 c-159 -57 -295 -212 -374 -423 -64 -174 -97 -436 -70
-570 34 -177 140 -286 310 -318 193 -37 439 180 670 588 27 50 50 97 50 106 0
40 -30 6 -95 -106 -183 -318 -409 -548 -538 -548 -88 0 -140 116 -138 310 1
63 4 142 9 174 l7 59 51 16 c153 50 334 256 411 468 32 90 32 185 -1 218 -13
13 -41 28 -62 34 -60 17 -172 13 -230 -8z m245 -46 c113 -58 -57 -414 -273
-571 -53 -39 -122 -72 -131 -62 -8 8 46 219 73 289 36 90 118 229 165 281 38
42 94 78 120 78 10 0 31 -7 46 -15z"/>
<path d="M1170 1225 c0 -60 3 -75 15 -75 9 0 15 9 15 24 0 38 18 41 38 7 22
-40 44 -41 36 -2 -3 16 -1 38 6 50 9 18 8 27 -5 47 -12 19 -24 24 -60 24 l-45
0 0 -75z m88 28 c-2 -11 -14 -19 -31 -21 -22 -3 -27 1 -27 17 0 17 6 21 31 21
24 0 30 -4 27 -17z"/>
<path d="M1400 1225 l0 -75 50 0 c58 0 68 17 13 22 -49 4 -53 32 -5 36 46 5
43 32 -3 32 -24 0 -35 5 -35 15 0 10 11 15 35 15 24 0 35 5 35 15 0 11 -12 15
-45 15 l-45 0 0 -75z"/>
<path d="M1632 1288 c-25 -25 -14 -55 28 -72 22 -9 40 -21 40 -26 0 -18 -31
-24 -53 -11 -31 20 -45 -3 -14 -24 30 -19 73 -12 87 15 14 27 3 48 -36 66 -42
20 -44 34 -3 34 20 0 29 4 27 13 -6 17 -60 21 -76 5z"/>
<path d="M1833 1288 c2 -7 9 -14 15 -14 7 -1 19 -2 27 -3 12 -1 15 -15 15 -61
0 -33 4 -60 10 -60 6 0 10 26 10 59 0 57 1 60 27 63 14 2 28 9 31 16 3 9 -15
12 -68 12 -53 0 -71 -3 -67 -12z"/>
<path d="M2300 1246 c0 -67 22 -99 68 -99 52 0 72 27 72 95 0 44 -3 58 -15 58
-10 0 -15 -15 -17 -56 -3 -64 -23 -88 -55 -68 -13 8 -19 27 -21 68 -2 41 -7
56 -17 56 -11 0 -15 -13 -15 -54z"/>
<path d="M2550 1225 c0 -60 3 -75 15 -75 10 0 15 10 15 30 0 17 3 30 8 30 15
0 29 -16 36 -37 4 -13 14 -23 22 -23 16 0 18 18 5 39 -6 9 -4 23 6 38 14 21
14 25 -1 48 -14 21 -25 25 -61 25 l-45 0 0 -75z m85 25 c0 -9 -11 -16 -27 -18
-23 -3 -28 1 -28 18 0 17 5 21 28 18 16 -2 27 -9 27 -18z"/>
<path d="M2801 1231 c-37 -74 -36 -91 2 -74 17 8 33 7 60 -2 46 -16 46 -11 4
79 l-32 68 -34 -71z m39 -35 c-14 -14 -24 0 -16 21 6 15 8 15 16 3 6 -9 5 -19
0 -24z"/>
<path d="M3118 1254 l-3 -46 -47 41 c-25 23 -51 41 -57 41 -17 0 -10 -132 7
-138 8 -2 12 10 12 43 l0 47 41 -34 c85 -69 79 -70 79 16 0 60 -3 76 -14 76
-11 0 -16 -14 -18 -46z"/>
<path d="M3252 1288 c3 -7 17 -14 31 -16 26 -3 27 -6 27 -63 0 -46 3 -59 15
-59 12 0 15 14 15 63 0 61 1 63 27 62 14 0 28 6 30 13 4 9 -15 12 -72 12 -57
0 -76 -3 -73 -12z"/>
<path d="M3500 1225 l0 -75 50 0 c28 0 50 5 50 10 0 6 -16 10 -35 10 -28 0
-35 4 -35 20 0 16 7 20 30 20 20 0 30 5 30 15 0 10 -10 15 -30 15 -42 0 -40
28 2 32 55 5 46 28 -11 28 l-51 0 0 -75z"/>
<path d="M4240 1224 l0 -75 53 3 52 3 3 60 c4 69 -9 85 -70 85 l-38 0 0 -76z
m80 31 c0 -9 -9 -15 -25 -15 -16 0 -25 6 -25 15 0 9 9 15 25 15 16 0 25 -6 25
-15z m6 -56 c8 -13 -13 -29 -38 -29 -11 0 -18 8 -18 20 0 15 7 20 24 20 14 0
28 -5 32 -11z"/>
<path d="M4512 1278 c-6 -15 -22 -48 -35 -75 l-25 -48 69 0 c38 0 69 2 68 5 0
3 -15 37 -33 75 -33 69 -34 69 -44 43z m18 -82 c-14 -14 -24 0 -16 21 6 15 8
15 16 3 6 -9 5 -19 0 -24z"/>
<path d="M4700 1225 c0 -71 15 -105 22 -48 5 39 25 39 44 0 10 -21 22 -33 30
-30 10 4 10 10 1 30 -8 18 -8 29 1 44 30 47 4 79 -62 79 l-36 0 0 -75z m78 26
c-2 -9 -15 -17 -31 -19 -21 -3 -27 1 -27 17 0 10 6 21 13 24 22 7 48 -5 45
-22z"/>
<path d="M5090 1225 l0 -75 43 0 c29 0 49 6 59 18 53 59 13 132 -72 132 l-30
0 0 -75z m95 11 c8 -24 6 -31 -14 -47 -34 -28 -46 -19 -49 35 -3 47 -3 47 25
44 20 -2 30 -11 38 -32z"/>
<path d="M5320 1225 l0 -75 55 0 c30 0 55 5 55 10 0 6 -18 10 -40 10 -33 0
-40 3 -40 20 0 16 7 20 30 20 20 0 30 5 30 15 0 10 -10 15 -30 15 -42 0 -40
28 2 32 55 5 46 28 -11 28 l-51 0 0 -75z"/>
<path d="M5702 1288 c3 -7 17 -14 31 -16 26 -3 27 -6 27 -63 0 -46 3 -59 15
-59 12 0 15 14 15 63 0 61 1 63 27 62 14 0 28 6 30 13 4 9 -15 12 -72 12 -57
0 -76 -3 -73 -12z"/>
<path d="M6180 1225 c0 -60 3 -75 15 -75 10 0 15 10 15 30 0 26 4 30 28 30 33
0 52 16 52 45 0 32 -20 45 -67 45 l-43 0 0 -75z m80 25 c0 -15 -7 -20 -25 -20
-18 0 -25 5 -25 20 0 15 7 20 25 20 18 0 25 -5 25 -20z"/>
<path d="M6653 1293 c-7 -2 -13 -17 -13 -33 0 -23 7 -30 41 -44 23 -9 39 -22
36 -29 -5 -16 -45 -21 -62 -7 -9 7 -15 8 -20 0 -16 -26 37 -46 79 -30 20 7 26
17 26 38 0 24 -7 32 -40 47 -49 22 -51 35 -5 35 36 0 47 13 19 24 -18 7 -43 7
-61 -1z"/>
<path d="M2096 1222 l-34 -68 69 0 c38 1 69 3 69 4 0 10 -60 132 -65 132 -2 0
-20 -31 -39 -68z m54 -24 c0 -5 -7 -8 -15 -8 -15 0 -20 21 -8 33 7 7 23 -11
23 -25z"/>
<path d="M5977 1244 c-45 -91 -46 -89 32 -90 l68 0 -28 59 c-40 85 -44 87 -72
31z m43 -40 c0 -8 -7 -14 -15 -14 -17 0 -18 2 -9 24 7 18 24 12 24 -10z"/>
<path d="M6422 1225 c-18 -36 -32 -67 -32 -70 0 -2 22 -1 48 2 30 3 58 1 72
-7 26 -14 27 -20 -15 78 -15 34 -31 62 -34 62 -4 0 -21 -29 -39 -65z m48 -21
c0 -14 -12 -19 -23 -8 -9 9 4 35 14 28 5 -3 9 -12 9 -20z"/>
<path d="M3880 1246 c0 -16 24 -24 58 -18 40 7 26 32 -18 32 -28 0 -40 -4 -40
-14z"/>
</g>
</svg>
