<?xml version="1.0" standalone="no"?>
<!DOCTYPE svg PUBLIC "-//W3C//DTD SVG 20010904//EN"
 "http://www.w3.org/TR/2001/REC-SVG-20010904/DTD/svg10.dtd">
<svg version="1.0" xmlns="http://www.w3.org/2000/svg"
 width="593.000000pt" height="508.000000pt" viewBox="0 0 593.000000 508.000000"
 preserveAspectRatio="xMidYMid meet">
<metadata>
Created by potrace 1.16, written by Peter Selinger 2001-2019
</metadata>
<g transform="translate(0.000000,508.000000) scale(0.100000,-0.100000)"
fill="#000000" stroke="none">
<path d="M1970 3615 l0 -285 -270 0 c-148 0 -270 -1 -270 -3 0 -2 50 -90 110
-195 61 -106 110 -196 110 -202 0 -5 -49 -94 -110 -197 l-109 -188 269 -3 270
-2 0 -288 0 -287 890 2 891 3 2 282 2 283 268 5 267 5 -101 175 c-56 96 -106
185 -111 196 -9 18 7 52 101 214 61 105 111 193 111 196 0 2 -121 4 -270 4
l-270 0 0 285 0 285 -890 0 -890 0 0 -285z m1700 -680 l0 -885 -810 0 -810 0
0 885 0 885 810 0 810 0 0 -885z"/>
<path d="M2341 3546 c-9 -11 19 -42 141 -156 84 -78 153 -147 153 -153 0 -5
-7 -14 -15 -19 -12 -7 -50 26 -166 141 -131 130 -154 148 -165 135 -11 -13 9
-37 140 -168 135 -136 150 -154 136 -166 -14 -12 -35 5 -170 140 -123 123
-157 152 -167 142 -10 -10 19 -44 142 -167 148 -148 154 -156 137 -172 -17
-17 -20 -16 -65 32 -187 202 -255 267 -263 254 -5 -8 -7 -19 -5 -25 11 -30
249 -315 273 -327 16 -8 57 -17 91 -21 82 -8 136 -32 191 -85 l43 -43 -38 -40
c-22 -22 -128 -128 -236 -237 -175 -175 -198 -201 -198 -230 0 -40 38 -81 77
-81 22 0 69 42 258 230 l230 230 215 -215 c118 -119 227 -222 242 -230 45 -25
98 7 98 59 0 26 -31 62 -236 267 l-237 237 23 34 c36 51 72 88 103 105 24 12
37 13 79 3 174 -42 386 118 405 306 7 68 -14 128 -64 177 -45 46 -89 60 -166
55 -157 -10 -302 -155 -315 -314 -2 -34 1 -77 7 -97 10 -29 9 -41 -3 -65 -17
-33 -96 -106 -137 -128 -24 -12 -30 -11 -60 12 -67 49 -109 135 -109 222 0 59
-20 101 -67 142 -30 27 -206 166 -279 222 -7 5 -16 3 -23 -6z"/>
<path d="M1724 1556 c-3 -7 -3 -68 -2 -137 l3 -124 28 -3 c27 -3 27 -3 27 57
0 64 1 66 50 52 21 -6 26 -14 30 -56 5 -46 7 -50 33 -53 26 -3 27 -2 27 45 0
27 -7 58 -15 70 -13 18 -13 22 0 33 9 7 15 29 15 51 0 30 -5 42 -25 55 -31 20
-164 28 -171 10z"/>
<path d="M1976 1562 c-3 -3 -6 -65 -6 -139 l0 -133 90 0 c73 0 90 3 90 15 0 8
0 18 0 23 0 4 -28 9 -62 12 -66 5 -64 3 -59 55 1 11 14 15 56 15 52 0 55 1 55
25 0 24 -3 25 -54 25 -43 0 -55 4 -58 18 -9 34 2 42 64 42 55 0 59 2 56 21 -3
20 -10 22 -85 24 -45 2 -84 1 -87 -3z"/>
<path d="M2235 1558 c-73 -40 -51 -127 37 -145 38 -8 65 -39 52 -61 -16 -25
-50 -26 -73 -3 -12 12 -32 21 -45 21 -19 0 -23 -4 -19 -20 20 -77 164 -80 193
-4 17 45 -5 79 -71 108 -43 19 -59 31 -59 45 0 30 40 38 61 12 18 -22 69 -29
69 -10 0 6 -13 24 -29 40 -32 31 -78 38 -116 17z"/>
<path d="M2404 1561 c-2 -2 -4 -13 -4 -23 0 -14 8 -18 40 -18 l40 0 0 -115 0
-115 25 0 25 0 0 115 0 115 41 0 c36 0 40 2 37 22 -3 22 -7 23 -101 23 -54 0
-100 -1 -103 -4z"/>
<path d="M2693 1555 c-79 -34 -93 -175 -23 -237 62 -57 163 -26 190 58 13 37
7 102 -11 136 -14 26 -69 58 -99 58 -14 -1 -39 -7 -57 -15z m101 -57 c16 -23
21 -84 10 -125 -8 -28 -55 -48 -82 -34 -39 21 -53 101 -27 151 13 24 22 30 50
30 24 0 39 -7 49 -22z"/>
<path d="M3015 1562 c-3 -3 -5 -66 -5 -139 l0 -134 88 3 c82 3 87 4 90 26 3
21 0 22 -57 22 l-60 0 -3 112 c-3 107 -4 111 -26 113 -12 1 -24 -1 -27 -3z"/>
<path d="M3285 1561 c-11 -5 -31 -21 -45 -36 -22 -23 -25 -35 -25 -102 0 -72
1 -76 33 -104 37 -33 94 -39 141 -14 68 35 82 168 24 226 -32 33 -91 46 -128
30z m89 -63 c18 -25 21 -94 6 -132 -11 -29 -49 -43 -78 -27 -43 23 -53 129
-16 166 23 23 70 19 88 -7z"/>
<path d="M3565 1560 c-43 -17 -68 -58 -73 -115 -5 -63 9 -107 46 -135 27 -22
82 -26 112 -10 13 7 21 7 25 0 3 -5 15 -10 26 -10 17 0 19 7 19 75 l0 75 -59
0 c-54 0 -59 -2 -54 -20 3 -13 14 -20 29 -20 28 0 33 -30 8 -54 -34 -34 -80
-11 -93 47 -10 42 1 106 21 118 21 14 64 10 78 -6 7 -8 25 -15 41 -15 27 0 28
1 17 26 -21 45 -90 66 -143 44z"/>
<path d="M3834 1555 c-48 -25 -68 -69 -62 -145 4 -55 8 -66 36 -91 52 -46 134
-37 179 21 19 24 27 98 14 139 -22 75 -100 110 -167 76z m101 -58 c17 -24 20
-93 5 -131 -11 -30 -49 -43 -79 -27 -31 17 -47 82 -32 132 18 59 73 73 106 26z"/>
</g>
</svg>
